<svg width="277" height="100" viewBox="0 0 277 100" fill="none" xmlns="http://www.w3.org/2000/svg">
<g clip-path="url(#clip0_131_953)">
<path d="M127.68 98.2878C154.17 98.2878 175.645 95.6956 175.645 92.4978C175.645 89.3001 154.17 86.7078 127.68 86.7078C101.189 86.7078 79.7148 89.3001 79.7148 92.4978C79.7148 95.6956 101.189 98.2878 127.68 98.2878Z" fill="#D3D9E7"/>
<path d="M144.793 10.8207C144.223 10.8681 141.846 4.74589 145.554 4.46113C149.261 4.12892 153.255 9.44434 155.679 8.87483C158.151 8.30532 162.952 4.8408 166.565 6.88155C170.178 8.92229 171.461 13.6207 166.375 17.7971C161.288 22.021 144.793 10.8207 144.793 10.8207Z" fill="#042C66"/>
<path d="M169.988 88.3214C151.401 103.556 114.179 95.9623 111.137 77.4533C111.137 77.3109 111.137 77.216 111.089 77.0736C107.144 48.2185 142.083 27.0992 142.083 27.0992C142.083 27.0992 135.476 8.49519 139.707 7.21379C143.937 5.93239 153.492 13.4309 155.679 14.3327C157.866 15.2344 171.842 10.3936 173.03 16.4683C173.696 19.7905 160.338 29.1399 160.338 29.1399C160.338 29.1399 163.475 35.357 167.516 43.52C174.504 57.6154 181.824 78.5448 169.94 88.274L169.988 88.3214Z" fill="#00215D"/>
<path d="M143.937 27.6688C142.701 25.3433 143.937 22.0211 146.457 21.1669C144.936 23.0652 144.127 25.2484 143.937 27.6688Z" fill="#00215D"/>
<path d="M151.781 21.7838C151.448 24.1092 150.83 26.2449 149.879 28.3806C149.547 26.0551 150.212 23.5872 151.781 21.7838Z" fill="#00215D"/>
<path d="M157.153 23.2075C157.485 24.394 157.438 25.6279 157.153 26.8619C156.867 28.0484 156.392 29.2348 155.489 30.0891C155.584 29.4721 155.727 28.9026 155.869 28.3331C156.249 26.672 156.582 24.8211 157.105 23.2075H157.153Z" fill="#00215D"/>
<path d="M161.003 28.1908L141.846 24.4415C140.657 24.2042 139.849 23.0652 140.087 21.8313C140.324 20.6448 141.465 19.838 142.701 20.0753L161.859 23.8246C163.047 24.0619 163.855 25.2009 163.618 26.4348C163.38 27.6213 162.239 28.4281 161.003 28.1908Z" fill="#CDCDCD"/>
<path d="M141.085 24.299L162.952 28.5704C164.141 28.8077 164.949 29.9467 164.711 31.1806C164.473 32.3671 163.332 33.1739 162.096 32.9366L140.229 28.6653C139.041 28.428 138.233 27.289 138.471 26.055C138.708 24.8686 139.849 24.0618 141.085 24.299Z" fill="#B9B9B9"/>
<path d="M150.497 29.0926C150.497 29.0926 147.265 29.9943 144.08 32.4147C141.893 34.1232 141.56 34.5978 141.56 34.5978L145.839 38.3471C145.839 38.3471 148.406 33.2215 150.545 30.6113C152.541 28.2383 150.45 29.0926 150.45 29.0926H150.497Z" fill="#FFD400"/>
<path d="M151.21 29.2349C151.21 29.2349 153.873 31.2756 155.869 34.7401C157.248 37.1131 157.39 37.6826 157.39 37.6826L152.019 39.5335C152.019 39.5335 151.591 33.8384 150.545 30.6112C149.594 27.6687 151.21 29.2349 151.21 29.2349Z" fill="#FFD400"/>
<path d="M151.448 30.7535C153.89 30.7535 155.869 28.7775 155.869 26.3398C155.869 23.9022 153.89 21.9261 151.448 21.9261C149.006 21.9261 147.027 23.9022 147.027 26.3398C147.027 28.7775 149.006 30.7535 151.448 30.7535Z" fill="#00215D"/>
<path d="M151.401 29.567C153.186 29.567 154.633 28.1222 154.633 26.3398C154.633 24.5575 153.186 23.1126 151.401 23.1126C149.615 23.1126 148.168 24.5575 148.168 26.3398C148.168 28.1222 149.615 29.567 151.401 29.567Z" fill="#FFD400"/>
<path d="M127.252 24.7263C122.403 24.7263 115.51 23.8245 110.329 19.4583C100.061 10.8682 105.099 0.711941 105.147 0.617022C105.195 0.522104 105.337 0.427185 105.48 0.427185L115.653 1.75604C115.795 1.75604 115.89 1.85096 115.938 1.99334C115.985 2.13571 115.938 2.23063 115.938 2.37301C115.843 2.46793 108.95 11.4377 112.182 14.8073C113.276 15.9463 115.225 16.5633 117.887 16.5633C120.549 16.5633 122.736 15.9938 122.783 15.9938C122.783 15.9938 122.831 15.9938 122.878 15.9938C122.973 15.9938 123.068 15.9938 123.116 16.0887L132.053 23.9195C132.148 24.0144 132.196 24.1567 132.148 24.2991C132.148 24.4415 132.005 24.5364 131.863 24.5364C131.768 24.5364 129.961 24.8212 127.252 24.8212V24.7263Z" fill="#8EBAD5"/>
<path d="M105.48 0.759406L115.653 2.08826C115.653 2.08826 108.427 11.3428 111.945 14.9971C113.323 16.4684 115.748 16.848 117.934 16.848C120.121 16.848 122.926 16.2785 122.926 16.2785L131.863 24.1093C131.863 24.1093 130.056 24.394 127.299 24.394C122.783 24.394 115.795 23.5872 110.566 19.221C100.393 10.7258 105.48 0.806866 105.48 0.806866M105.48 0.0475194C105.194 0.0475194 104.957 0.189896 104.862 0.427192C104.814 0.52211 103.531 3.0849 103.531 6.73926C103.531 10.3936 104.672 15.0921 110.138 19.6956C113.038 22.1635 118.41 25.0585 127.299 25.0585C136.189 25.0585 131.863 24.7737 131.958 24.7263C132.243 24.7263 132.433 24.489 132.528 24.2042C132.623 23.9195 132.528 23.6347 132.338 23.4923L123.401 15.6616C123.259 15.5667 123.116 15.4717 122.926 15.4717C122.736 15.4717 122.831 15.4717 122.783 15.4717C122.783 15.4717 120.501 16.0412 117.982 16.0412C115.463 16.0412 113.561 15.4717 112.515 14.4276C109.996 11.8174 114.369 4.88835 116.271 2.46794C116.413 2.2781 116.461 1.99334 116.366 1.75605C116.271 1.51875 116.033 1.37638 115.795 1.32892L105.622 6.10352e-05C105.622 6.10352e-05 105.575 6.10352e-05 105.527 6.10352e-05L105.48 0.0475194Z" fill="#00215D"/>
<path d="M115.653 2.08833C115.653 2.08833 108.427 11.3429 111.945 14.9972C112.135 15.1871 112.373 15.3769 112.61 15.5667C116.033 17.9397 122.878 16.2786 122.878 16.2786L131.815 24.1094C131.815 24.1094 120.264 26.0077 111.945 20.2652C111.469 19.933 111.042 19.6007 110.566 19.2211C100.393 10.7259 105.48 0.806937 105.48 0.806937L115.653 2.13579M115.938 1.6612C115.89 1.6612 115.795 1.56628 115.7 1.56628L105.527 0.237427C105.337 0.237427 105.099 0.332344 105.004 0.522181C104.957 0.617099 103.673 3.13243 103.673 6.73933C103.673 10.3462 104.814 14.9972 110.186 19.5058C110.614 19.8855 111.089 20.2177 111.564 20.5499C115.938 23.5873 121.215 24.489 124.875 24.7263C128.82 24.9636 131.673 24.5365 131.815 24.489C132.005 24.489 132.148 24.3467 132.196 24.1568C132.243 23.967 132.196 23.7771 132.053 23.6348L123.116 15.804C123.021 15.7091 122.878 15.7091 122.736 15.7091C122.688 15.7091 116.033 17.2753 112.848 15.0921C112.61 14.9498 112.42 14.7599 112.23 14.5701C109.615 11.8649 114.036 4.84096 115.985 2.32563C116.128 2.08833 116.081 1.80358 115.843 1.6612H115.938Z" fill="#0F265C"/>
<path d="M127.489 22.7332C127.489 22.7332 125.683 22.7332 123.163 22.4959C118.79 22.0213 112.135 20.55 108.807 16.2313C106.145 12.7193 105.717 9.11239 105.908 6.50213C106.05 4.31901 106.668 2.84778 106.668 2.84778L109.283 3.22745L110.281 3.36983L112.325 3.70204C112.325 3.70204 111.707 4.65123 110.994 6.02754C109.663 8.73271 108.902 13.1464 111.327 15.5194C113.609 17.7499 117.602 18.3669 119.788 18.0347C120.834 17.8923 121.5 17.655 121.5 17.655L123.544 19.411L124.447 20.1704L127.394 22.7332H127.489Z" fill="#E5E5E5"/>
<path d="M112.373 3.74948C112.373 3.74948 111.755 4.69867 111.042 6.07498C109.71 8.78015 108.95 13.1939 111.374 15.5668C111.66 15.8516 111.945 16.0889 112.277 16.3262C114.607 17.9398 117.934 18.3669 119.836 18.0821C120.882 17.9398 121.547 17.7025 121.547 17.7025L123.591 19.4585L124.495 20.2178L127.442 22.7806C127.442 22.7806 125.635 22.7806 123.116 22.5433C119.693 22.1636 114.987 21.2144 111.469 18.794C110.424 18.0821 109.52 17.2753 108.76 16.2787C106.098 12.7667 105.67 9.15982 105.86 6.54957C106.003 4.36645 106.621 2.89522 106.621 2.89522L109.235 3.27489L110.233 3.41727L112.277 3.74948M112.658 3.32235C112.61 3.32235 112.515 3.22743 112.468 3.22743L110.424 2.89522L109.425 2.75284L106.811 2.37317C106.573 2.37317 106.383 2.46809 106.288 2.65793C106.288 2.70539 105.67 4.22408 105.48 6.45466C105.29 9.01745 105.622 12.8142 108.475 16.516C109.235 17.4652 110.186 18.3669 111.279 19.1262C114.892 21.5941 119.741 22.5908 123.163 22.9704C125.683 23.2552 127.489 23.2077 127.537 23.2077C127.727 23.2077 127.917 23.0653 127.965 22.8755C128.06 22.6857 127.965 22.4484 127.822 22.3535L124.875 19.7907L123.972 19.0313L121.928 17.2753C121.785 17.1804 121.642 17.1804 121.5 17.2279C121.5 17.2279 120.834 17.4177 119.883 17.6076C117.982 17.8923 114.844 17.4177 112.705 15.9465C112.373 15.7092 112.087 15.4719 111.85 15.2346C109.568 13.004 110.471 8.63777 111.612 6.31228C112.277 4.98342 112.895 4.03424 112.895 4.03424C112.991 3.89186 112.991 3.70202 112.895 3.55965C112.895 3.46473 112.8 3.41727 112.705 3.36981L112.658 3.32235Z" fill="#0F265C"/>
<path d="M89.5074 55.0052C84.516 55.0052 81.2359 52.3 81.0933 52.2051C80.9983 52.1102 80.9507 51.9678 80.9983 51.8254L84.2783 42.8557C84.2783 42.7608 84.4209 42.6658 84.5635 42.6184C84.5635 42.6184 84.5635 42.6184 84.6111 42.6184C84.7062 42.6184 84.8012 42.6658 84.8963 42.7608C84.9438 42.8082 90.1729 49.1203 93.9759 49.1203C97.7788 49.1203 95.0217 48.9779 95.402 48.7406C98.7296 46.7473 98.6345 39.4386 98.6345 39.3437C98.6345 39.2488 98.682 39.1064 98.7771 39.0589L107.762 32.557C107.809 32.5096 107.904 32.5096 107.952 32.5096C107.999 32.5096 108.047 32.5096 108.142 32.5096C108.237 32.557 108.332 32.6994 108.332 32.8418C108.332 32.9842 107.476 45.2286 99.3476 51.3983C96.1626 53.8187 92.8825 55.0052 89.5074 55.0052Z" fill="#8EBAD5"/>
<path d="M107.952 32.7943C107.952 32.7943 107.239 44.9439 99.1099 51.1135C95.5446 53.8187 92.2646 54.673 89.5074 54.673C84.5636 54.673 81.331 51.9678 81.331 51.9678L84.6111 42.998C84.6111 42.998 89.9352 49.4999 93.9759 49.4999C98.0165 49.4999 95.1168 49.3576 95.5922 49.0728C99.1099 46.9371 99.0148 39.3911 99.0148 39.3911L107.999 32.8892M107.952 32.0824C107.809 32.0824 107.667 32.1299 107.524 32.2248L98.587 38.7267C98.3968 38.8691 98.3018 39.1064 98.3018 39.2962C98.3018 39.4861 98.3493 46.4625 95.2119 48.3609C94.8316 48.5982 94.4037 48.6931 93.9284 48.6931C90.886 48.6931 86.5601 44.1845 85.134 42.476C84.9914 42.2861 84.8012 42.1912 84.5636 42.1912C84.3259 42.1912 84.4685 42.1912 84.4685 42.1912C84.2308 42.1912 83.9931 42.4285 83.898 42.6658L80.618 51.6356C80.5229 51.9203 80.618 52.2526 80.8081 52.4424C80.9507 52.5373 84.3259 55.3374 89.4599 55.3374C94.5939 55.3374 96.3052 54.1035 99.4902 51.6356C107.619 45.4659 108.522 33.791 108.617 32.8418C108.617 32.8418 108.617 32.7943 108.617 32.7469C108.617 32.3672 108.285 32.035 107.904 32.035L107.952 32.0824Z" fill="#00215D"/>
<path d="M107.952 32.7944C107.952 32.7944 107.239 44.9439 99.1098 51.1136C95.5445 53.8188 92.2645 54.6731 89.5073 54.6731C84.5635 54.6731 81.331 51.9679 81.331 51.9679L84.611 42.9981C84.611 42.9981 89.9352 49.5 93.9758 49.5C98.0165 49.5 95.1167 49.3577 95.5921 49.0729C99.1098 46.9372 99.0147 39.3912 99.0147 39.3912L107.999 32.8893M107.952 32.3198C107.857 32.3198 107.762 32.3198 107.666 32.4147L98.7295 38.9166C98.6345 39.0116 98.5394 39.1539 98.5394 39.2963C98.5394 39.4387 98.5869 46.605 95.3544 48.5983C94.9266 48.8356 94.4987 48.978 93.9758 48.978C90.2204 48.978 85.0389 42.7134 84.9913 42.6659C84.8962 42.571 84.7536 42.4761 84.611 42.4761C84.4684 42.4761 84.5635 42.4761 84.5159 42.4761C84.3733 42.4761 84.2307 42.6185 84.1357 42.7608L80.8556 51.7306C80.8081 51.9204 80.8556 52.1103 80.9982 52.2527C81.1408 52.3476 84.4684 55.1002 89.5073 55.1002C94.5463 55.1002 96.2101 53.8663 99.395 51.4459C103.673 48.1712 105.908 43.2829 107.001 39.7709C108.142 36.0691 108.38 33.1741 108.38 32.8419C108.38 32.5571 108.189 32.3198 107.904 32.3198H107.952Z" fill="#0F265C"/>
<path d="M105.86 36.4486C105.86 36.4486 105.527 38.0622 104.767 40.2928C103.436 44.1844 100.726 49.8795 96.1149 52.0152C92.3595 53.7237 88.9843 53.3441 86.655 52.6322C84.706 52.0152 83.47 51.1609 83.47 51.1609L84.3732 48.8829L84.706 48.0286L85.4191 46.2252C85.4191 46.2252 86.1321 46.9845 87.273 47.8863C89.4597 49.6422 93.3577 51.2559 96.0198 49.5473C98.4917 47.9337 99.9178 44.4217 100.06 42.381C100.108 41.3844 100.06 40.7674 100.06 40.7674L102.057 39.2962L102.913 38.6317L105.86 36.4486Z" fill="#E5E5E5"/>
<path d="M105.86 36.4487C105.86 36.4487 105.527 38.0623 104.767 40.2928C103.436 44.1845 100.726 49.8796 96.115 52.0152C94.166 52.917 92.3121 53.2492 90.6483 53.2492C88.9845 53.2492 87.7961 52.9644 86.7027 52.6322C84.7537 52.0152 83.5177 51.161 83.5177 51.161L84.4209 48.8829L84.7537 48.0287L85.4667 46.2252C85.4667 46.2252 86.1798 46.9846 87.3207 47.8863C88.8419 49.1202 91.2187 50.2593 93.4054 50.2593C95.5921 50.2593 95.2594 50.0694 96.0675 49.4999C98.5394 47.8863 99.9655 44.3743 100.108 42.3336C100.156 41.3369 100.108 40.72 100.108 40.72L102.105 39.2487L102.96 38.5843L105.908 36.4012M105.86 35.9741C105.765 35.9741 105.67 35.9741 105.575 36.069L102.628 38.2521L101.772 38.9165L99.7754 40.3878C99.6328 40.4827 99.5852 40.6251 99.5852 40.8149C99.5852 40.8149 99.6328 41.4319 99.5852 42.381C99.4426 44.2319 98.1591 47.649 95.7347 49.2152C95.0692 49.6423 94.2611 49.8796 93.3104 49.8796C91.1236 49.8796 88.8419 48.6456 87.5108 47.6015C86.4175 46.7473 85.7044 45.9879 85.7044 45.9879C85.6094 45.893 85.5143 45.8456 85.3717 45.8456C85.2291 45.8456 85.3241 45.8456 85.2766 45.8456C85.134 45.8456 84.9914 45.9879 84.9438 46.1303L84.2308 47.9338L83.898 48.788L82.9948 51.0661C82.8997 51.2559 82.9948 51.4932 83.1374 51.5881C83.185 51.5881 84.4209 52.4898 86.4175 53.1068C87.7485 53.5339 89.1271 53.7238 90.5057 53.7238C92.4547 53.7238 94.3562 53.2966 96.2101 52.4424C98.7771 51.2559 102.437 48.2185 105.147 40.4352C105.908 38.2046 106.24 36.591 106.288 36.4961C106.288 36.3063 106.288 36.1164 106.098 36.0215C106.003 35.9741 105.955 35.9741 105.86 35.9741Z" fill="#0F265C"/>
<path d="M141.227 99.7592H141.132L131.53 94.3963C131.435 94.3963 131.387 94.3014 131.387 94.2065V82.0569L130.722 80.9179C130.722 80.8705 130.722 80.7755 130.722 80.6806C130.722 80.6332 130.817 80.5857 130.912 80.5382C131.815 80.3484 136.426 79.4941 136.711 79.4941L141.655 79.9687L181.967 83.9078C182.062 83.9078 182.157 84.0028 182.157 84.0977L182.68 89.7928V93.7793C182.68 93.8268 182.68 93.8743 182.68 93.9217C182.68 93.9692 182.68 94.0641 182.68 94.0641V97.8134C182.68 97.9557 182.585 98.0507 182.442 98.0507L141.275 99.7592H141.227Z" fill="#8EBAD5"/>
<path d="M136.664 79.6839L141.608 80.1585L181.919 84.0976L182.442 89.7927V93.7318C182.442 93.8267 182.442 93.9691 182.442 94.064V97.7658L141.275 99.4743L131.673 94.1115V81.9145L130.96 80.6805C130.96 80.6805 136.426 79.6364 136.712 79.6364M136.664 79.2093C136.379 79.2093 132.861 79.8737 130.817 80.2534C130.674 80.2534 130.532 80.3958 130.484 80.5381C130.437 80.6805 130.437 80.8229 130.484 80.9653L131.102 82.0568V94.1589C131.102 94.3488 131.197 94.4911 131.34 94.586L140.942 99.9489C140.99 99.9489 141.085 99.9964 141.18 99.9964L182.347 98.2879C182.585 98.2879 182.822 98.0506 182.822 97.8133V94.1115C182.822 94.064 182.822 94.0165 182.822 93.9691C182.822 93.9216 182.822 93.8742 182.822 93.8267C182.822 93.7792 182.822 89.7927 182.822 89.7927L182.3 84.0501C182.3 83.8128 182.109 83.623 181.872 83.623L141.56 79.6839L136.616 79.2093H136.569H136.664Z" fill="#00215D"/>
<path d="M136.664 79.6839L141.608 80.1585L181.919 84.0976L182.442 89.7927V97.7658L141.275 99.4743L131.673 94.1115V80.6331C131.673 80.6331 136.474 79.6364 136.759 79.6364M136.664 79.0195C136.426 79.0195 135.476 79.2093 131.815 79.9212C131.72 79.9212 131.673 79.9212 131.578 79.9212C131.245 79.9687 131.007 80.2534 130.912 80.5856C130.912 80.5856 130.912 80.6331 130.912 80.6805V82.0569V94.1115C130.912 94.3488 131.055 94.5861 131.245 94.681L140.847 100.044C140.942 100.091 141.038 100.139 141.18 100.139H141.228L182.395 98.4303C182.585 98.4303 182.775 98.3353 182.87 98.193C182.965 98.0506 183.06 97.8607 183.013 97.6709V89.8402C183.013 89.7927 183.013 89.7452 183.013 89.6978L182.49 84.0027C182.49 83.6705 182.205 83.4332 181.919 83.4332L141.608 79.4941L136.664 79.0195Z" fill="#0F265C"/>
<g style="mix-blend-mode:multiply" opacity="0.2">
<path d="M141.56 80.1585L141.228 99.4743L131.625 94.1114V80.6331C131.625 80.6331 136.426 79.6364 136.712 79.6364L141.656 80.111L141.56 80.1585Z" fill="#482654"/>
</g>
<path d="M141.18 99.8065C140.99 99.8065 140.847 99.6641 140.847 99.4743L141.323 84.0026C141.323 83.8128 141.465 83.6704 141.655 83.6704C141.846 83.6704 141.988 83.8128 141.988 84.0026L141.513 99.4743C141.513 99.6641 141.37 99.8065 141.18 99.8065Z" fill="#0F265C"/>
<path d="M131.578 77.5481C131.578 77.5481 160.433 79.8736 171.128 78.7346C178.211 81.9144 181.824 84.0975 181.824 84.0975C181.824 84.0975 151.543 87.9891 141.085 87.4671C138.47 85.5213 131.53 77.5007 131.53 77.5007L131.578 77.5481Z" fill="#A0C7D8"/>
<path d="M131.578 77.5482C131.578 77.5482 150.212 79.0194 163.047 79.0194C175.882 79.0194 169.037 78.9245 171.128 78.6872C178.211 81.867 181.824 84.0501 181.824 84.0501C181.824 84.0501 158.293 86.4705 143.272 87.4671C142.701 87.4671 142.178 87.4671 141.655 87.4671C141.275 87.4671 140.895 87.3248 140.61 87.0875C137.71 84.6671 131.53 77.5007 131.53 77.5007M131.578 76.8838C131.34 76.8838 131.102 77.0261 131.007 77.2634C130.912 77.5007 130.912 77.7855 131.102 77.9753C131.387 78.2601 137.092 84.8569 140.039 87.4197C140.562 87.8943 141.228 88.1316 141.941 88.179C142.369 88.179 142.796 88.179 143.224 88.179H143.367C157.913 87.3248 181.682 84.762 181.919 84.7145C182.205 84.7145 182.442 84.4772 182.49 84.1925C182.537 83.9077 182.442 83.623 182.205 83.4806C182.205 83.4806 178.449 81.2025 171.414 78.0702C171.319 78.0702 171.224 78.0228 171.128 78.0228H171.081C169.132 78.2126 166.422 78.3075 163.047 78.3075C150.355 78.3075 131.815 76.8363 131.625 76.8363H131.578V76.8838Z" fill="#0F265C"/>
<path d="M134.62 79.1142L141.133 85.9009L177.546 83.433L170.891 79.9685C170.891 79.9685 140.657 80.2532 134.62 79.1142Z" fill="#E5E5E5"/>
<path d="M134.62 79.1143C138.708 79.8736 153.825 80.016 163.237 80.016C172.65 80.016 170.891 80.016 170.891 80.016L177.546 83.4805L141.133 85.9484L134.62 79.1617M134.62 78.4498C134.382 78.4498 134.145 78.5922 134.05 78.782C133.907 79.0193 133.954 79.3516 134.145 79.5414L140.657 86.328C140.8 86.4704 140.942 86.5179 141.133 86.5179L177.546 84.05C177.831 84.05 178.069 83.8127 178.116 83.528C178.164 83.2432 178.021 82.9584 177.784 82.8161L171.128 79.3515C171.033 79.3041 170.938 79.3041 170.843 79.3041C170.843 79.3041 167.611 79.3041 163.19 79.3041C154.3 79.3041 138.756 79.2092 134.715 78.4498H134.62Z" fill="#0F265C"/>
<path d="M141.465 90.1249C141.418 90.1249 141.37 90.1249 141.275 90.0775L131.387 84.0027C131.245 83.9078 131.197 83.718 131.292 83.5756C131.387 83.4332 131.578 83.3857 131.72 83.4807L141.513 89.508L182.062 86.4706C182.252 86.4706 182.395 86.613 182.395 86.7553C182.395 86.9452 182.3 87.0875 182.109 87.0875L141.418 90.1249H141.465Z" fill="#0F265C"/>
<path d="M141.465 93.1623C141.418 93.1623 141.37 93.1623 141.323 93.1623L131.435 87.8943C131.292 87.7994 131.197 87.6096 131.292 87.4672C131.387 87.3248 131.578 87.2299 131.72 87.3248L141.513 92.5453L182.347 89.5554C182.537 89.5554 182.68 89.6978 182.68 89.8402C182.68 90.03 182.537 90.1724 182.395 90.1724L141.465 93.1623Z" fill="#0F265C"/>
<path d="M141.323 96.1047C141.275 96.1047 141.228 96.1047 141.18 96.1047L131.435 90.8367C131.292 90.7418 131.197 90.5519 131.292 90.4096C131.387 90.2672 131.578 90.2197 131.72 90.2672L141.37 95.4877L182.395 93.6368C182.585 93.6368 182.727 93.7792 182.727 93.9215C182.727 94.1114 182.585 94.2537 182.395 94.2537L141.275 96.1521L141.323 96.1047Z" fill="#0F265C"/>
<path d="M150.26 78.2602L159.767 86.5655L159.149 99.5219H164.568L164.949 86.0435L156.725 78.2602H150.26Z" fill="#FFD400"/>
<path d="M156.725 78.2602L164.949 86.0435L164.521 99.4744H159.149L159.767 86.5181L150.26 78.2602H156.725ZM156.725 77.6432H150.26C149.974 77.6432 149.737 77.8331 149.642 78.0704C149.547 78.3077 149.642 78.5924 149.832 78.7822L159.102 86.8503L158.484 99.4744C158.484 99.6643 158.531 99.8066 158.674 99.949C158.816 100.091 158.959 100.139 159.149 100.139H164.521C164.854 100.139 165.139 99.9016 165.186 99.5693L165.614 86.1384C165.614 85.9486 165.567 85.7113 165.424 85.5689L157.2 77.7856C157.105 77.6907 156.915 77.5958 156.772 77.5958L156.725 77.6432Z" fill="#0F265C"/>
<path d="M159.767 86.8977C159.577 86.8977 159.482 86.7553 159.434 86.6129C159.434 86.4231 159.529 86.2807 159.72 86.2332L164.901 85.7112C165.091 85.7112 165.234 85.8061 165.281 85.9959C165.281 86.1858 165.186 86.3281 164.996 86.3756L159.815 86.8977H159.767Z" fill="#0F265C"/>
<path d="M117.317 93.732C117.317 93.732 119.979 94.6337 123.116 92.9252C126.206 91.2166 128.012 83.5757 123.116 78.6874" fill="#8EBAD5"/>
<path d="M119.123 94.3489C117.982 94.3489 117.269 94.1116 117.221 94.1116C117.031 94.0641 116.936 93.8268 116.984 93.637C117.031 93.4472 117.269 93.3522 117.412 93.3997C117.412 93.3997 119.979 94.2065 122.926 92.5929C124.257 91.8335 125.35 89.8877 125.683 87.5622C126.111 84.335 125.065 81.2027 122.831 78.9247C122.688 78.7823 122.688 78.545 122.831 78.4026C122.973 78.2602 123.211 78.2602 123.354 78.4026C125.778 80.823 126.919 84.1452 126.444 87.6097C126.063 90.1725 124.922 92.3081 123.354 93.1624C121.785 94.0167 120.311 94.254 119.218 94.254L119.123 94.3489Z" fill="#00215D"/>
<path d="M93.5955 90.9793L94.879 94.1116C94.879 94.1116 98.8721 94.776 106.763 94.9659C113.228 95.1557 119.313 95.0608 119.313 95.0608L116.746 90.4098" fill="#8EBAD5"/>
<path d="M116.556 95.4404C114.179 95.4404 110.471 95.4404 106.716 95.298C98.8721 95.0607 94.8315 94.4438 94.7839 94.4438C94.6413 94.4438 94.5463 94.3488 94.4987 94.2065L93.2152 91.0742C93.1201 90.8843 93.2152 90.6945 93.4054 90.5996C93.5955 90.5046 93.7857 90.5996 93.8807 90.7894L95.0692 93.7319C95.9724 93.8742 99.9179 94.3963 106.716 94.5861C111.897 94.7285 116.936 94.7285 118.648 94.6811L116.366 90.5521C116.271 90.3623 116.366 90.1724 116.508 90.0775C116.651 89.9826 116.889 90.0775 116.984 90.2199L119.551 94.8709C119.598 94.9658 119.598 95.1082 119.551 95.2031C119.503 95.298 119.361 95.3929 119.266 95.3929C119.17 95.3929 118.172 95.3929 116.508 95.3929L116.556 95.4404Z" fill="#00215D"/>
<path d="M118.79 92.5454C114.797 92.5454 113.513 89.9352 113.466 89.7928L110.043 79.3993C110.043 79.3043 110.043 79.2094 110.043 79.162C110.043 79.1145 112.42 73.6093 118.22 73.6093C124.019 73.6093 121.072 73.9415 122.641 74.5584C122.641 74.5584 122.736 74.6059 122.783 74.6534C126.443 78.4975 126.491 83.813 125.398 87.23C124.494 90.0301 122.831 91.9759 120.977 92.3556C120.216 92.498 119.503 92.5929 118.838 92.5929L118.79 92.5454Z" fill="#8EBAD5"/>
<path d="M118.22 73.9414C119.456 73.9414 120.882 74.2261 122.498 74.8431C128.25 80.8704 125.16 91.0741 120.882 91.9758C120.121 92.1182 119.456 92.1657 118.838 92.1657C114.987 92.1657 113.846 89.6504 113.846 89.6504L110.424 79.2568C110.424 79.2568 112.61 73.9414 118.267 73.9414M118.22 73.2295C112.182 73.2295 109.853 78.7822 109.758 79.0195C109.711 79.1619 109.663 79.3517 109.758 79.4941L113.181 89.8876C113.181 89.8876 113.181 89.9351 113.181 89.9826C113.228 90.0775 114.607 92.925 118.838 92.925C123.068 92.925 120.264 92.8301 121.024 92.6877C122.973 92.3081 124.78 90.2199 125.731 87.3249C126.824 83.8129 126.776 78.3551 123.021 74.416C122.926 74.3211 122.878 74.2736 122.783 74.2261C121.215 73.6092 119.693 73.277 118.267 73.277L118.22 73.2295Z" fill="#00215D"/>
<path d="M93.4054 92.4979C93.3103 92.4979 93.2152 92.4979 93.1677 92.403C93.0251 92.2606 90.0778 89.2707 89.5073 84.4298C88.6517 77.5957 94.879 73.182 95.7822 73.0396C96.6379 72.8973 97.446 72.7549 98.2541 72.6125C102.437 71.9955 106.335 71.6633 109.758 71.6633C113.181 71.6633 113.371 71.7583 114.987 71.9481C120.692 72.6125 122.783 74.2261 123.021 74.3685C123.164 74.4634 123.211 74.7007 123.068 74.8431C122.973 74.938 122.878 74.9855 122.783 74.9855C122.688 74.9855 122.641 74.9855 122.593 74.938C122.498 74.8906 121.547 74.3685 120.264 74.3685C118.98 74.3685 117.174 75.2228 115.985 76.9313C110.424 84.8095 116.746 92.2131 117.031 92.4979C117.126 92.5928 117.126 92.7352 117.079 92.8776C117.031 93.0199 116.889 93.0674 116.746 93.0674L93.4054 92.4504V92.4979Z" fill="#8EBAD5"/>
<path d="M109.711 72.0431C111.707 72.0431 113.418 72.138 114.892 72.3278C120.597 72.9922 122.641 74.6059 122.736 74.7008C122.688 74.7008 121.642 74.0363 120.216 74.0363C118.79 74.0363 117.174 74.6059 115.653 76.7415C109.853 84.9519 116.699 92.7827 116.699 92.7827L93.3578 92.1657C93.3578 92.1657 90.363 89.1758 89.7925 84.4299C88.9369 77.5958 95.2593 73.5143 95.7347 73.4194C96.5903 73.277 97.3985 73.1346 98.2066 72.9922C102.77 72.3278 106.573 72.0431 109.663 72.0431M109.758 71.3312C106.288 71.3312 102.39 71.6634 98.2066 72.2804C97.446 72.3753 96.6379 72.5177 95.7347 72.7075C94.7839 72.8973 88.2714 77.2636 89.1746 84.5248C89.7925 89.4606 92.8349 92.5454 92.93 92.6878C93.0726 92.8302 93.2152 92.8776 93.4054 92.8776L116.746 93.4946C117.031 93.4946 117.269 93.3522 117.412 93.0675C117.507 92.8302 117.507 92.498 117.316 92.3081C117.031 92.0234 110.947 84.8096 116.318 77.1687C117.459 75.555 118.79 74.7482 120.311 74.7482C121.833 74.7482 122.355 75.2228 122.45 75.2703C122.546 75.3177 122.688 75.3652 122.831 75.3652C123.068 75.3652 123.259 75.2703 123.401 75.0804C123.591 74.7957 123.544 74.3686 123.259 74.1313C123.021 73.9414 120.882 72.2804 115.082 71.6159C113.466 71.4261 111.707 71.3312 109.806 71.3312H109.758Z" fill="#00215D"/>
<path d="M113.323 91.0267C113.323 91.0267 101.582 90.5046 94.3561 90.4572C88.3665 81.1552 95.5446 75.6499 98.3017 72.9922C99.3475 72.8498 100.393 72.7074 101.344 72.5651C104.101 72.2329 106.478 72.0905 108.617 72.043C111.089 71.9956 114.987 72.1379 116.746 72.3278C106.858 79.2568 113.323 91.0267 113.323 91.0267Z" fill="#E5E5E5"/>
<path d="M113.941 91.4063H113.323C113.228 91.4063 101.534 90.8842 94.3561 90.7893H94.1659L94.0709 90.6469C88.3189 81.7246 94.4987 76.0295 97.446 73.3243C97.6837 73.1345 97.8738 72.9447 98.064 72.7548L98.1591 72.6599H98.2541C99.2999 72.4701 100.346 72.3277 101.344 72.2328C103.911 71.948 106.383 71.7582 108.665 71.7107C111.184 71.6633 115.082 71.8057 116.841 71.9955L117.792 72.0904L117.031 72.6125C107.524 79.2567 113.656 90.6944 113.704 90.8368L113.989 91.4063H113.941ZM94.5462 90.1249C100.774 90.1723 110.281 90.5995 112.753 90.6944C111.66 88.3214 107.952 78.8771 115.795 72.6599C113.846 72.5175 110.756 72.4226 108.617 72.4701C106.335 72.4701 103.911 72.7074 101.392 72.9921C100.441 73.087 99.4901 73.2294 98.4443 73.3718C98.3017 73.5142 98.1115 73.704 97.9214 73.8939C94.9265 76.6939 89.3172 81.8195 94.5462 90.1723V90.1249Z" fill="#00215D"/>
<path d="M123.116 83.9552C122.878 86.8502 119.313 91.3114 117.126 87.3723C116.556 86.3756 116.318 85.1892 116.318 84.0976C116.318 80.8704 118.267 77.6906 120.264 77.6906C122.26 77.6906 122.878 79.1618 123.068 81.4873C123.164 82.2467 123.164 83.0535 123.068 83.9552H123.116Z" fill="#E5E5E5"/>
<path d="M119.218 89.2232C118.505 89.2232 117.602 88.8436 116.841 87.4673C116.271 86.4706 115.985 85.2841 115.985 84.0027C115.985 81.8671 116.841 79.589 118.125 78.3076C118.79 77.6432 119.551 77.2635 120.311 77.2635C122.07 77.2635 123.259 78.7822 123.496 81.3925C123.591 82.1518 123.591 83.0061 123.496 83.9078C123.306 85.9486 121.595 88.7487 119.693 89.1283C119.551 89.1283 119.361 89.1758 119.218 89.1758V89.2232ZM120.311 78.0229C119.741 78.0229 119.17 78.3076 118.648 78.8772C117.507 80.0162 116.699 82.1044 116.699 84.0502C116.699 85.1892 116.984 86.2808 117.459 87.1825C118.03 88.2266 118.743 88.7012 119.551 88.5114C121.119 88.1791 122.641 85.7113 122.783 83.9078C122.878 83.0061 122.878 82.1993 122.783 81.4874C122.641 80.1586 122.165 77.9754 120.311 77.9754V78.0229Z" fill="#00215D"/>
<path d="M123.116 83.9553C122.878 86.8503 119.313 91.3115 117.126 87.3724C116.556 86.3757 116.318 85.1892 116.318 84.0977C116.936 84.6197 117.839 85.1892 118.838 85.1892C120.692 85.1892 119.313 81.7247 119.313 81.7247L123.164 81.4874C123.259 82.2468 123.259 83.0536 123.164 83.9553H123.116Z" fill="#CCDCDC"/>
<path d="M119.218 89.2233C118.505 89.2233 117.602 88.8436 116.841 87.4673C116.271 86.4706 115.985 85.2842 115.985 84.0028V83.2434L116.556 83.7655C117.079 84.2401 117.934 84.7621 118.79 84.7621C119.075 84.7621 119.218 84.6197 119.266 84.5723C119.598 84.0502 119.266 82.6265 118.933 81.8197L118.743 81.3451L123.401 81.0603V81.3925C123.496 82.1519 123.496 83.0061 123.401 83.9079C123.211 85.9486 121.5 88.7487 119.598 89.1284C119.456 89.1284 119.266 89.1758 119.123 89.1758L119.218 89.2233ZM116.746 84.7621C116.841 85.6164 117.079 86.4232 117.459 87.1351C118.03 88.1792 118.743 88.6538 119.551 88.4639C121.119 88.1317 122.641 85.6638 122.783 83.8604C122.831 83.101 122.878 82.4366 122.783 81.7722L119.788 81.962C120.026 82.7214 120.406 84.1451 119.884 84.9045C119.741 85.1418 119.408 85.4265 118.838 85.4265C118.172 85.4265 117.459 85.1892 116.699 84.7147L116.746 84.7621Z" fill="#00215D"/>
<path d="M118.552 87.8944C117.697 87.8944 117.079 87.7046 117.031 87.6571C116.841 87.6097 116.746 87.3724 116.794 87.23C116.841 87.0401 117.079 86.9452 117.221 86.9927C117.221 86.9927 118.648 87.4673 120.169 86.8503C122.688 85.8537 121.88 81.6298 121.88 81.5823C121.88 81.3925 121.975 81.2027 122.165 81.1552C122.355 81.1552 122.546 81.2501 122.593 81.44C122.593 81.6298 123.496 86.3283 120.454 87.5147C119.741 87.7995 119.075 87.847 118.505 87.847L118.552 87.8944Z" fill="#00215D"/>
<path d="M106.811 95.5829C106.193 95.5829 105.622 95.5829 105.099 95.488C103.673 95.2981 99.4901 90.22 99.4901 83.3385C99.4901 76.4569 102.77 72.1381 104.149 71.9957C105.385 71.8533 108.427 71.7584 108.57 71.7584C108.712 71.7584 108.855 71.8533 108.902 71.9957C108.902 72.1381 108.902 72.3279 108.76 72.4229C108.76 72.4229 104.149 75.5552 104.244 83.3385C104.339 91.0743 108.76 94.871 108.807 94.9185C108.902 95.0134 108.95 95.1558 108.902 95.2981C108.855 95.4405 108.76 95.5354 108.617 95.5354C108.617 95.5354 107.809 95.6304 106.811 95.6304V95.5829Z" fill="#FFDB00"/>
<path d="M108.617 72.0905C108.617 72.0905 103.816 75.2228 103.911 83.2908C104.006 91.3114 108.57 95.1082 108.57 95.1082C108.57 95.1082 107.809 95.2031 106.811 95.2031C105.812 95.2031 105.717 95.2031 105.147 95.1082C103.959 94.9183 99.8704 90.1249 99.8704 83.2908C99.8704 76.4567 103.008 72.4227 104.244 72.2803C105.48 72.1379 108.617 72.043 108.617 72.043M108.617 71.3786C108.475 71.3786 105.432 71.4735 104.196 71.6159C102.485 71.8057 99.2048 76.172 99.2048 83.3383C99.2048 90.5046 103.388 95.5828 105.099 95.8675C105.67 95.9624 106.24 95.9624 106.858 95.9624C107.904 95.9624 108.712 95.8675 108.712 95.8675C108.997 95.8675 109.235 95.6302 109.283 95.3455C109.378 95.0607 109.283 94.7759 109.045 94.5861C109.045 94.5861 104.719 90.8368 104.624 83.2908C104.577 79.3517 105.765 76.694 106.763 75.1279C107.857 73.4668 108.997 72.7075 108.997 72.7075C109.283 72.5176 109.378 72.1854 109.283 71.9006C109.188 71.6159 108.902 71.3786 108.617 71.3786Z" fill="#00215D"/>
<path d="M135.904 63.9274H123.877V59.0392C128.25 54.2932 131.72 50.4016 134.477 44.0895H141.846V59.0392H145.173V63.9274H141.846V66.3004H143.985V71.1887H133.764V66.3004H135.904V63.9274ZM135.904 59.0392V50.4016H135.808C133.812 54.0559 132.291 56.1442 129.914 59.0392H135.904Z" fill="white"/>
<path d="M146.789 47.4117C146.789 45.3235 147.93 44.0421 150.07 44.0421C152.209 44.0421 153.35 45.3235 153.35 47.4117C153.35 49.4999 152.209 50.7813 150.07 50.7813C147.93 50.7813 146.789 49.4999 146.789 47.4117ZM151.306 47.4117C151.306 46.2727 150.878 45.7032 150.117 45.7032C149.356 45.7032 148.929 46.2727 148.929 47.4117C148.929 48.5507 149.309 49.1202 150.117 49.1202C150.925 49.1202 151.306 48.5507 151.306 47.4117ZM151.543 59.4189H149.356L157.675 44.1845H159.862L151.543 59.4189ZM155.774 56.1917C155.774 54.1035 156.915 52.8221 159.054 52.8221C161.193 52.8221 162.334 54.1035 162.334 56.1917C162.334 58.2799 161.193 59.5612 159.054 59.5612C156.915 59.5612 155.774 58.2799 155.774 56.1917ZM160.29 56.1917C160.29 55.0526 159.862 54.4831 159.102 54.4831C158.341 54.4831 157.913 55.0526 157.913 56.1917C157.913 57.3307 158.341 57.9002 159.102 57.9002C159.862 57.9002 160.29 57.3307 160.29 56.1917Z" fill="white"/>
<path d="M146.076 64.4495H163.808V71.426H147.93C146.885 71.426 146.029 70.5717 146.029 69.5276V64.4495H146.076Z" fill="#FFD400"/>
<path d="M154.776 61.1274V63.263H154.348V61.1274H153.682V60.7477H155.489V61.1274H154.823H154.776Z" fill="white"/>
<path d="M157.248 63.263L156.677 62.3138H156.202V63.263H155.774V60.7477H156.82C157.343 60.7477 157.628 61.0799 157.628 61.5545C157.628 62.0291 157.438 62.1715 157.105 62.2664L157.723 63.3105H157.2L157.248 63.263ZM156.249 61.9342H156.82C157.057 61.9342 157.248 61.8392 157.248 61.5545C157.248 61.2697 157.105 61.1748 156.82 61.1748H156.249V61.9816V61.9342Z" fill="white"/>
<path d="M159.767 61.1273H158.531V61.7443H159.577V62.124H158.531V62.8359H159.767V63.2155H158.103V60.7002H159.767V61.0799V61.1273Z" fill="white"/>
<path d="M161.574 62.646H160.718L160.528 63.263H160.052L160.908 60.7477H161.431L162.239 63.263H161.764L161.574 62.646ZM161.146 61.2223L160.765 62.2664H161.478L161.146 61.2223Z" fill="white"/>
<path d="M148.121 69.6226L148.263 68.9581C148.786 69.053 149.214 69.1005 149.452 69.1005C149.689 69.1005 149.927 69.0056 149.927 68.8158C149.927 68.6259 149.594 68.4835 149.166 68.3886C148.548 68.1988 148.168 67.8666 148.168 67.2971C148.168 66.7276 148.739 66.3004 149.452 66.3004C150.165 66.3004 150.212 66.3479 150.688 66.4903L150.497 67.1547C149.927 67.0598 149.689 67.0123 149.452 67.0123C149.214 67.0123 149.024 67.1072 149.024 67.2971C149.024 67.4869 149.309 67.5818 149.737 67.6767C150.355 67.8191 150.783 68.1039 150.783 68.7208C150.783 69.3378 150.165 69.8124 149.452 69.8124C148.739 69.8124 148.596 69.7649 148.121 69.6226Z" fill="#0F265C"/>
<path d="M151.02 68.0564C151.02 67.0598 151.353 66.3004 152.589 66.3004C153.825 66.3004 154.158 67.0598 154.158 68.0564C154.158 69.0531 153.825 69.8598 152.589 69.8598C151.353 69.8598 151.02 69.0531 151.02 68.0564ZM151.924 68.0564C151.924 68.7208 152.019 69.1954 152.637 69.1954C153.255 69.1954 153.35 68.7208 153.35 68.0564C153.35 67.392 153.255 66.9648 152.637 66.9648C152.019 66.9648 151.924 67.392 151.924 68.0564Z" fill="#0F265C"/>
<path d="M155.346 66.3479V69.0531H156.915V69.765H154.538V66.3479H155.346Z" fill="#0F265C"/>
<path d="M159.577 67.0597H158.008V67.6767H159.339V68.3885H158.008V69.1004H159.625V69.8123H157.2V66.3953H159.625V67.1072L159.577 67.0597Z" fill="#0F265C"/>
<path d="M159.862 69.6226L160.005 68.9581C160.528 69.053 160.956 69.1005 161.193 69.1005C161.431 69.1005 161.669 69.0056 161.669 68.8158C161.669 68.6259 161.336 68.4835 160.908 68.3886C160.29 68.1988 159.91 67.8666 159.91 67.2971C159.91 66.7276 160.48 66.3004 161.193 66.3004C161.906 66.3004 161.954 66.3479 162.429 66.4903L162.239 67.1547C161.669 67.0598 161.431 67.0123 161.193 67.0123C160.956 67.0123 160.765 67.1072 160.765 67.2971C160.765 67.4869 161.051 67.5818 161.478 67.6767C162.096 67.8191 162.524 68.1039 162.524 68.7208C162.524 69.3378 161.906 69.8124 161.193 69.8124C160.48 69.8124 160.338 69.7649 159.862 69.6226Z" fill="#0F265C"/>
</g>
<defs>
<clipPath id="clip0_131_953">
<rect width="277" height="100" fill="white"/>
</clipPath>
</defs>
</svg>
