<svg width="72" height="72" viewBox="0 0 72 72" fill="none" xmlns="http://www.w3.org/2000/svg">
<g clip-path="url(#clip0_391_241)">
<path d="M70.3342 25.1441C70.2125 24.7698 69.8595 24.5112 69.4625 24.5112H63.7181L67.7708 20.4506C68.0583 20.1706 68.1161 19.7447 67.9366 19.3917C64.497 12.7949 59.1968 7.48983 52.6019 4.04843C52.465 3.98301 52.3281 3.9465 52.1851 3.9465C51.9462 3.9465 51.7089 4.04082 51.537 4.21274L47.4752 8.27334V2.52704C47.4752 2.12387 47.2226 1.77242 46.8423 1.6568C43.3433 0.547702 39.6709 0 36 0C32.3276 0 28.6552 0.547702 25.1562 1.6568C24.7743 1.77242 24.5157 2.12539 24.5157 2.52704V8.27334L20.4615 4.21274C20.2819 4.04082 20.0522 3.9465 19.8134 3.9465C19.6689 3.9465 19.5335 3.98301 19.3966 4.04843C16.1136 5.75391 13.1395 7.93712 10.5411 10.5417C7.94878 13.1342 5.76724 16.107 4.06187 19.3902C3.88235 19.7431 3.94625 20.1676 4.22769 20.4491L8.28803 24.5097H2.536C2.14047 24.5097 1.786 24.7683 1.67038 25.1426C0.553752 28.657 0 32.2992 0 35.9932C0 39.6795 0.553752 43.3369 1.67038 46.8437C1.786 47.218 2.13894 47.4782 2.536 47.4782H8.28803L4.22769 51.5312C3.94625 51.8126 3.88235 52.2447 4.06187 52.5977C7.49696 59.1929 12.8032 64.5071 19.3981 67.9409C19.535 68.0048 19.6719 68.0337 19.8225 68.0337C20.0538 68.0337 20.2911 67.947 20.463 67.7736L24.5172 63.713V69.4577C24.5172 69.8548 24.7759 70.2139 25.1577 70.3295C28.6567 71.4386 32.3002 72 36.0015 72C39.6952 72 43.3448 71.4386 46.8438 70.3295C47.2257 70.2139 47.4767 69.8548 47.4767 69.4577V63.713L51.5385 67.7736C51.7104 67.9455 51.9478 68.0337 52.1866 68.0337C52.322 68.0337 52.4665 68.0048 52.6034 67.9409C59.1983 64.5056 64.4985 59.1929 67.9397 52.5977C68.1192 52.2447 68.0614 51.8126 67.7738 51.5312L63.7211 47.4782H69.4655C69.8611 47.4782 70.2155 47.218 70.3372 46.8437C71.4386 43.3369 72 39.6856 72 35.9932C71.9985 32.3007 71.4356 28.6509 70.3342 25.1441ZM68.787 45.6586H61.5304C61.1562 45.6586 60.8245 45.8807 60.6876 46.22C60.5431 46.5592 60.6237 46.9533 60.8823 47.2134L66.0152 52.3466C62.854 58.1431 58.1455 62.8519 52.3494 66.0133L47.2089 60.8786C47.0431 60.7067 46.8058 60.6124 46.5685 60.6124C46.4544 60.6124 46.3387 60.6413 46.2231 60.6778C45.8839 60.8223 45.6602 61.1525 45.6602 61.5206V68.7929C42.5294 69.7149 39.2677 70.1819 35.9985 70.1819C32.7292 70.1819 29.4599 69.7149 26.3367 68.7929V61.5206C26.3367 61.1525 26.1131 60.8223 25.7754 60.6778C25.6673 60.6337 25.5441 60.6048 25.4224 60.6048C25.1912 60.6124 24.9615 60.7067 24.7804 60.8786L19.6476 66.0133C13.8514 62.8519 9.143 58.1431 5.99087 52.3466L11.1161 47.2134C11.3763 46.9533 11.4554 46.5577 11.3093 46.22C11.1724 45.8807 10.8484 45.6586 10.4741 45.6586H3.20233C2.28043 42.526 1.81187 39.2794 1.81187 35.9962C1.81187 32.7069 2.28043 29.4588 3.20233 26.3262H10.4741C10.8484 26.3262 11.1724 26.1102 11.3093 25.7633C11.4539 25.4255 11.3747 25.0361 11.1161 24.7774L5.99087 19.6427C7.55933 16.7551 9.51724 14.1277 11.8372 11.8167C14.1405 9.51328 16.7693 7.54612 19.6491 5.97756L24.7819 11.1107C24.9615 11.2842 25.1927 11.377 25.4239 11.377C25.5456 11.377 25.6689 11.3557 25.7769 11.3055C26.1161 11.1686 26.3382 10.8369 26.3382 10.4702V3.19036C29.4691 2.27601 32.7307 1.81655 36 1.81655C39.2693 1.81655 42.5309 2.27753 45.6618 3.19036V10.4702C45.6618 10.8369 45.8854 11.1609 46.2246 11.3055C46.3403 11.3481 46.4559 11.377 46.57 11.377C46.8088 11.377 47.0446 11.2842 47.2104 11.1107L52.3509 5.97756C58.1471 9.13141 62.8555 13.8401 66.0167 19.6427L60.8839 24.7774C60.6237 25.0361 60.5446 25.4255 60.6892 25.7633C60.8261 26.1102 61.1577 26.3262 61.5319 26.3262H68.7885C69.7165 29.4588 70.179 32.7054 70.179 35.9962C70.176 39.2854 69.715 42.5245 68.787 45.6586Z" fill="#2E2E2D"/>
<path d="M12.0015 35.0028C12.0015 35.8457 11.4295 36.6794 9.58719 36.6794C7.73729 36.6794 7.16376 35.8441 7.16376 35.0028V31.5203C7.16376 30.6775 7.73729 29.8438 9.58719 29.8438C11.428 29.8438 12.0015 30.6775 12.0015 31.5203V31.9783C12.0015 32.1806 11.9315 32.2704 11.7261 32.2704H10.7145C10.5061 32.2704 10.43 32.1806 10.43 31.9783V31.8109C10.43 31.3621 10.0862 31.1719 9.60544 31.1719C9.12015 31.1719 8.7885 31.3621 8.7885 31.8109V34.7153C8.7885 35.1732 9.12015 35.3573 9.60544 35.3573C10.0862 35.3573 10.43 35.1732 10.43 34.7153V34.4003C10.43 34.198 10.5076 34.1067 10.7145 34.1067H11.7261C11.9315 34.1067 12.0015 34.1965 12.0015 34.4003V35.0028Z" fill="#2E2E2D"/>
<path d="M12.8306 31.521C12.8306 30.6766 13.4893 29.8398 15.3377 29.8398C17.1845 29.8398 17.8524 30.6766 17.8524 31.521V35.0035C17.8524 35.8433 17.1845 36.68 15.3377 36.68C13.4893 36.68 12.8306 35.8433 12.8306 35.0035V31.521ZM16.2337 31.8101C16.2337 31.3521 15.8169 31.1711 15.3361 31.1711C14.8539 31.1711 14.4523 31.3536 14.4523 31.8101V34.7144C14.4523 35.1678 14.8524 35.3549 15.3361 35.3549C15.8169 35.3549 16.2337 35.1678 16.2337 34.7144V31.8101Z" fill="#2E2E2D"/>
<path d="M25.1762 36.3072C25.1762 36.5186 25.1138 36.5993 24.9039 36.5993H23.8937C23.6853 36.5993 23.6062 36.5186 23.6062 36.3072V33.1974C23.5956 33.2218 23.41 33.911 23.2928 34.2244L22.8593 35.3C22.7817 35.4917 22.6706 35.5906 22.4789 35.5906H21.6194C21.4277 35.5906 21.3288 35.4734 21.2512 35.3L20.7097 34.0479C20.6017 33.7953 20.4739 33.3009 20.4556 33.2233V36.3087C20.4556 36.5202 20.3811 36.6008 20.1757 36.6008H19.2142C19.0104 36.6008 18.9282 36.5202 18.9282 36.3087V30.2155C18.9282 30.0101 19.0104 29.9234 19.2142 29.9234H20.1757C20.3248 29.9234 20.3811 29.9812 20.4358 30.0801L21.77 33.0849C21.91 33.4196 22.0393 33.8273 22.0515 33.8638C22.0515 33.8456 22.1579 33.5398 22.339 33.1046L23.6275 30.0558C23.664 29.9614 23.7462 29.9219 23.8953 29.9219H24.9054C25.1153 29.9219 25.1777 30.0101 25.1777 30.214V36.3072H25.1762Z" fill="#2E2E2D"/>
<path d="M27.9722 34.3324V36.3072C27.9722 36.5171 27.9037 36.6054 27.6983 36.6054H26.641C26.4296 36.6054 26.3535 36.5171 26.3535 36.3072V30.217C26.3535 30.0116 26.4296 29.9219 26.641 29.9219H28.7617C30.6086 29.9219 31.2567 30.7586 31.2567 31.6015V32.6543C31.2567 33.5017 30.6086 34.3309 28.7617 34.3309H27.9722V34.3324ZM27.9722 31.2501V33.0088H28.7602C29.244 33.0088 29.6517 32.8186 29.6517 32.3698V31.8845C29.6517 31.4326 29.244 31.2501 28.7602 31.2501H27.9722Z" fill="#2E2E2D"/>
<path d="M35.9893 33.8897L36.9553 36.3072C37.0177 36.4852 36.8945 36.6054 36.6754 36.6054H35.6181C35.434 36.6054 35.3914 36.4471 35.3321 36.3072L34.4695 34.1392H33.7317V36.3072C33.7317 36.5171 33.6632 36.6054 33.4533 36.6054H32.3929C32.1815 36.6054 32.1069 36.5171 32.1069 36.3072V30.217C32.1069 30.0116 32.1815 29.9219 32.3929 29.9219H34.5136C36.3574 29.9219 37.0101 30.7586 37.0101 31.6015V32.4596C37.0116 33.0194 36.7302 33.5717 35.9893 33.8897ZM33.7317 31.2501V32.8064H34.5152C34.9974 32.8064 35.4112 32.6208 35.4112 32.169V31.883C35.4112 31.4311 34.9974 31.2485 34.5152 31.2485H33.7317V31.2501Z" fill="#2E2E2D"/>
<path d="M37.938 31.521C37.938 30.6766 38.6013 29.8398 40.4436 29.8398C42.295 29.8398 42.9628 30.6766 42.9628 31.521V35.0035C42.9628 35.8433 42.295 36.68 40.4436 36.68C38.6028 36.68 37.938 35.8433 37.938 35.0035V31.521ZM41.3366 31.8101C41.3366 31.3521 40.9273 31.1711 40.4436 31.1711C39.9628 31.1711 39.5627 31.3536 39.5627 31.8101V34.7144C39.5627 35.1678 39.9644 35.3549 40.4436 35.3549C40.9273 35.3549 41.3366 35.1678 41.3366 34.7144V31.8101Z" fill="#2E2E2D"/>
<path d="M50.2865 36.3072C50.2865 36.5186 50.2227 36.5993 50.0081 36.5993H49.0041C48.7896 36.5993 48.7166 36.5186 48.7166 36.3072V33.1974C48.7059 33.2218 48.5203 33.911 48.4001 34.2244L47.9681 35.3C47.8875 35.4917 47.784 35.5906 47.5817 35.5906H46.7282C46.532 35.5906 46.4361 35.4734 46.3555 35.3L45.817 34.0479C45.712 33.7953 45.5781 33.3009 45.5583 33.2233V36.3087C45.5583 36.5202 45.4914 36.6008 45.286 36.6008H44.3231C44.1177 36.6008 44.0386 36.5202 44.0386 36.3087V30.2155C44.0386 30.0101 44.1192 29.9234 44.3231 29.9234H45.286C45.4351 29.9234 45.4914 29.9812 45.5401 30.0801L46.8788 33.0849C47.0142 33.4196 47.1375 33.8273 47.1572 33.8638C47.1572 33.8456 47.2576 33.5398 47.4448 33.1046L48.7318 30.0558C48.7744 29.9614 48.8504 29.9219 49.001 29.9219H50.0051C50.2196 29.9219 50.2835 30.0101 50.2835 30.214V36.3072H50.2865Z" fill="#2E2E2D"/>
<path d="M53.0826 36.3072C53.0826 36.5186 53.0126 36.5993 52.8133 36.5993H51.7499C51.5385 36.5993 51.4624 36.5186 51.4624 36.3072V30.214C51.4624 30.0086 51.5385 29.9219 51.7499 29.9219H52.8133C53.0141 29.9219 53.0826 30.0101 53.0826 30.214V36.3072Z" fill="#2E2E2D"/>
<path d="M57.3287 31.7405C57.3287 31.2841 57.0198 31.1198 56.5604 31.1198C56.1116 31.1198 55.7846 31.2841 55.7846 31.7405V31.8379C55.7846 32.0995 55.9899 32.2213 56.1025 32.2639L57.7485 32.8161C58.4773 33.0641 58.9823 33.5707 58.9823 34.3086V35.0024C58.9823 35.8452 58.3784 36.6805 56.5315 36.6805C54.6877 36.6805 54.064 35.8452 54.064 35.0024V34.339C54.064 34.1397 54.1461 34.0439 54.3515 34.0439H55.3708C55.5807 34.0439 55.6507 34.1382 55.6507 34.339V34.7894C55.6507 35.2382 56.028 35.4025 56.5102 35.4025C56.9925 35.4025 57.385 35.2367 57.385 34.7894V34.5855C57.385 34.2295 56.9164 34.0637 56.5437 33.9298L55.1304 33.3958C54.6238 33.2086 54.2131 32.6625 54.2131 32.0889V31.5184C54.2131 30.677 54.7273 29.8418 56.5422 29.8418C58.3571 29.8418 58.9108 30.677 58.9108 31.5184V31.8835C58.9108 32.0889 58.8287 32.1802 58.6233 32.1802H57.5995C57.3971 32.1802 57.3271 32.0904 57.3271 31.8835V31.7405H57.3287Z" fill="#2E2E2D"/>
<path d="M59.8101 31.521C59.8101 30.6766 60.4673 29.8398 62.3172 29.8398C64.164 29.8398 64.8319 30.6766 64.8319 31.521V35.0035C64.8319 35.8433 64.164 36.68 62.3172 36.68C60.4673 36.68 59.8101 35.8433 59.8101 35.0035V31.521ZM63.2132 31.8101C63.2132 31.3521 62.7948 31.1711 62.3172 31.1711C61.8349 31.1711 61.4333 31.3536 61.4333 31.8101V34.7144C61.4333 35.1678 61.8349 35.3549 62.3172 35.3549C62.7948 35.3549 63.2132 35.1678 63.2132 34.7144V31.8101Z" fill="#2E2E2D"/>
<path d="M20.5253 43.3743H21.9736V41.4635C21.9736 41.2931 22.0375 41.2246 22.2079 41.2246H23.0735C23.2393 41.2246 23.2971 41.2931 23.2971 41.4635V46.4369C23.2971 46.6012 23.2393 46.6727 23.0735 46.6727H22.2079C22.039 46.6727 21.9736 46.6012 21.9736 46.4369V44.4576H20.5253V46.4369C20.5253 46.6012 20.466 46.6727 20.3017 46.6727H19.4361C19.2611 46.6727 19.1987 46.6012 19.1987 46.4369V41.4635C19.1987 41.2931 19.2611 41.2246 19.4361 41.2246H20.3017C20.466 41.2246 20.5253 41.2931 20.5253 41.4635V43.3743Z" fill="#2E2E2D"/>
<path d="M26.3429 45.447V45.1823H25.6005C25.3692 45.1823 25.3312 45.3101 25.3312 45.4318V45.5398C25.3312 45.7178 25.4848 45.7452 25.6005 45.7452C25.8758 45.7452 26.1573 45.5763 26.3429 45.447ZM24.2054 43.8115C24.2054 43.0478 24.7242 42.6035 25.9078 42.6035C27.1141 42.6035 27.601 43.0478 27.601 43.8115V46.4344C27.601 46.6002 27.534 46.6702 27.3697 46.6702H26.6289C26.4524 46.6702 26.4174 46.6002 26.3946 46.4344L26.3809 46.3142C26.142 46.5089 25.7815 46.7402 25.2536 46.7402C24.4458 46.7402 24.0776 46.2442 24.0776 45.7163V45.3709C24.0776 44.8248 24.5249 44.3318 25.3586 44.3318H26.3398V43.8891C26.3398 43.6442 26.2227 43.527 25.8819 43.527C25.5426 43.527 25.3996 43.6046 25.3996 43.8541V43.9119C25.3996 44.0762 25.3358 44.1432 25.1654 44.1432H24.4382C24.2663 44.1432 24.2024 44.0762 24.2024 43.9119V43.8115H24.2054Z" fill="#2E2E2D"/>
<path d="M30.7457 44.0359C30.7457 43.8762 30.7396 43.7012 30.4323 43.7012C30.1235 43.7012 29.8055 43.9127 29.6412 44.0314V45.3124C29.8055 45.4326 30.1235 45.6425 30.4323 45.6425C30.7411 45.6425 30.7457 45.4661 30.7457 45.3063V44.0359ZM28.5931 46.6771C28.4227 46.6771 28.3618 46.6025 28.3618 46.4352V41.3126C28.3618 41.1438 28.4227 41.0723 28.5931 41.0723H29.4161C29.5849 41.0723 29.6412 41.1438 29.6412 41.3126V43.0181C29.8649 42.8432 30.2452 42.6043 30.8446 42.6043C31.6539 42.6043 32.0312 43.0744 32.0312 43.8397V45.5026C32.0312 46.2663 31.6539 46.7364 30.8446 46.7364C30.2102 46.7364 29.8344 46.4687 29.6108 46.2952L29.5956 46.4337C29.5773 46.601 29.5287 46.6756 29.3598 46.6756H28.5931V46.6771Z" fill="#2E2E2D"/>
<path d="M34.0284 46.4352C34.0284 46.601 33.9706 46.671 33.8079 46.671H32.9803C32.8084 46.671 32.749 46.5995 32.749 46.4352V41.3142C32.749 41.1423 32.8084 41.0723 32.9803 41.0723H33.8079C33.9706 41.0723 34.0284 41.1423 34.0284 41.3142V46.4352Z" fill="#2E2E2D"/>
<path d="M36.0045 44.144H36.9706V43.9128C36.9706 43.6709 36.8184 43.5476 36.4822 43.5476C36.146 43.5476 36.0045 43.6709 36.0045 43.9128V44.144ZM38.1648 44.745C38.1648 44.8941 38.1009 44.958 37.9518 44.958H36.0045V45.4418C36.0045 45.6806 36.146 45.7902 36.4822 45.7902C36.8184 45.7902 36.9706 45.6806 36.9706 45.4418V45.4342C36.9706 45.2668 37.0314 45.2029 37.2018 45.2029H37.8925C38.0598 45.2029 38.1237 45.2668 38.1237 45.4342V45.4935C38.1237 46.2481 37.6916 46.738 36.4822 46.738C35.2697 46.738 34.751 46.2481 34.751 45.4935V43.8519C34.751 43.0897 35.2697 42.6074 36.4822 42.6074C37.6916 42.6074 38.1648 43.0897 38.1648 43.8519V44.745Z" fill="#2E2E2D"/>
<path d="M39.8627 42.6728C40.0301 42.6728 40.0772 42.7307 40.094 42.8995L40.1046 43.0365C40.3221 42.8524 40.669 42.6074 41.3064 42.6074C41.7887 42.6074 42.1462 42.8128 42.3287 43.1369C42.5326 42.9573 42.9175 42.6074 43.6492 42.6074C44.3764 42.6074 44.8282 43.0699 44.8282 43.7196V46.4337C44.8282 46.6041 44.7613 46.6772 44.5924 46.6772H43.7831C43.6127 46.6772 43.5443 46.6041 43.5443 46.4337V44.0527C43.5443 43.7956 43.4941 43.7043 43.237 43.7043C42.9236 43.7043 42.63 43.8915 42.4824 44.0284V46.4352C42.4824 46.6056 42.4215 46.6787 42.2512 46.6787H41.4479C41.276 46.6787 41.203 46.6056 41.203 46.4352V44.0543C41.203 43.7971 41.1589 43.7059 40.8972 43.7059C40.5838 43.7059 40.2887 43.893 40.1472 44.0299V46.4368C40.1472 46.6072 40.0879 46.6802 39.9205 46.6802H39.0929C38.9256 46.6802 38.8647 46.6072 38.8647 46.4368V42.9026C38.8647 42.7337 38.9256 42.6759 39.0929 42.6759H39.8627V42.6728Z" fill="#2E2E2D"/>
<path d="M47.892 43.9586C47.892 43.6924 47.6668 43.6011 47.3397 43.6011C47.0081 43.6011 46.7845 43.6909 46.7845 43.9586V45.3735C46.7845 45.6459 47.0081 45.7387 47.3397 45.7387C47.6668 45.7387 47.892 45.6459 47.892 45.3735V43.9586ZM45.5005 43.8506C45.5005 43.0884 46.1273 42.6016 47.3397 42.6016C48.5476 42.6016 49.1714 43.0884 49.1714 43.8506V45.4922C49.1714 46.2483 48.5476 46.7382 47.3397 46.7382C46.1273 46.7382 45.5005 46.2483 45.5005 45.4922V43.8506Z" fill="#2E2E2D"/>
<path d="M51.8824 43.7415C51.8824 43.5255 51.6663 43.4844 51.4397 43.4844C51.213 43.4844 51.0061 43.5255 51.0061 43.7415V43.7826C51.0061 43.9013 51.0943 43.9652 51.1719 43.9986L52.2992 44.3988C52.8301 44.5889 53.0979 44.878 53.0979 45.266V45.6463C53.0979 46.1727 52.6308 46.7387 51.4047 46.7387C50.18 46.7387 49.7282 46.1742 49.7282 45.6463V45.4774C49.7282 45.3314 49.783 45.266 49.9427 45.266H50.6836C50.8418 45.266 50.8966 45.3314 50.8966 45.4774V45.5931C50.8966 45.8106 51.1674 45.8502 51.4047 45.8502C51.6466 45.8502 51.9189 45.8106 51.9189 45.5931V45.5215C51.9189 45.4151 51.8519 45.3725 51.6025 45.269L50.4767 44.84C50.1785 44.7274 49.8393 44.3546 49.8393 43.9652V43.7415C49.8393 43.2151 50.2257 42.6035 51.4442 42.6035C52.6628 42.6035 53.0416 43.2151 53.0416 43.7415V43.8511C53.0416 44.0108 52.9884 44.0747 52.821 44.0747H52.0938C51.9356 44.0747 51.8793 44.0108 51.8793 43.8511V43.7415H51.8824Z" fill="#2E2E2D"/>
<path d="M17.7763 50.257C17.9467 50.257 18 50.3209 18.0106 50.4913L18.0182 50.6267C18.2312 50.4426 18.5902 50.1992 19.2185 50.1992C19.7054 50.1992 20.0629 50.4031 20.2469 50.7226C20.4493 50.5446 20.8296 50.1992 21.5674 50.1992C22.2916 50.1992 22.7388 50.6602 22.7388 51.3114V54.024C22.7388 54.1959 22.6749 54.2689 22.5091 54.2689H21.6952C21.5309 54.2689 21.4594 54.1974 21.4594 54.024V51.64C21.4594 51.3859 21.4092 51.2901 21.1567 51.2901C20.8372 51.2901 20.5421 51.4878 20.3991 51.6141V54.024C20.3991 54.1959 20.3321 54.2689 20.1678 54.2689H19.3555C19.1912 54.2689 19.1166 54.1974 19.1166 54.024V51.64C19.1166 51.3859 19.0679 51.2901 18.8139 51.2901C18.4974 51.2901 18.2023 51.4878 18.0593 51.6141V54.024C18.0593 54.1959 18.003 54.2689 17.8357 54.2689H17.0111C16.8408 54.2689 16.7769 54.1974 16.7769 54.024V50.4929C16.7769 50.3225 16.8408 50.2586 17.0111 50.2586H17.7763V50.257Z" fill="#2E2E2D"/>
<path d="M25.6657 53.0443V52.7765H24.9217C24.6951 52.7765 24.654 52.9028 24.654 53.0245V53.1295C24.654 53.3135 24.8061 53.3379 24.9217 53.3379C25.1956 53.3379 25.4785 53.169 25.6657 53.0443ZM25.6946 49.6409C25.6489 49.7124 25.5531 49.8037 25.3842 49.8037H24.7514C24.6023 49.8037 24.546 49.7413 24.6205 49.5679L24.943 48.8346C25.0085 48.6885 25.1028 48.5957 25.2671 48.5957H26.122C26.294 48.5957 26.3396 48.6961 26.2468 48.8346L25.6946 49.6409ZM23.5298 51.4057C23.5298 50.645 24.05 50.1932 25.2321 50.1932C26.44 50.1932 26.9223 50.645 26.9223 51.4057V54.0256C26.9223 54.1975 26.8553 54.2675 26.691 54.2675H25.9501C25.7721 54.2675 25.7417 54.1975 25.7189 54.0256L25.7007 53.9099C25.4664 54.0971 25.1028 54.3314 24.581 54.3314C23.7701 54.3314 23.3989 53.8384 23.3989 53.3044V52.9606C23.3989 52.4174 23.8477 51.926 24.6799 51.926H25.6641V51.4818C25.6641 51.2368 25.544 51.1167 25.2078 51.1167C24.8655 51.1167 24.7194 51.1927 24.7194 51.4422V51.5C24.7194 51.672 24.6616 51.7328 24.4912 51.7328H23.764C23.5921 51.7328 23.5282 51.672 23.5282 51.5V51.4057H23.5298Z" fill="#2E2E2D"/>
<path d="M29.6698 51.3353C29.6698 51.1208 29.4553 51.0751 29.2271 51.0751C29.0004 51.0751 28.7935 51.1192 28.7935 51.3353V51.3718C28.7935 51.4935 28.8818 51.5589 28.9593 51.5893L30.0821 51.9895C30.6191 52.1827 30.8838 52.4702 30.8838 52.8567V53.2431C30.8838 53.768 30.4183 54.3294 29.1875 54.3294C27.9659 54.3294 27.5156 53.768 27.5156 53.2431V53.0712C27.5156 52.9175 27.5719 52.8567 27.7377 52.8567H28.4664C28.6307 52.8567 28.6885 52.916 28.6885 53.0712V53.1899C28.6885 53.3983 28.9548 53.4409 29.1875 53.4409C29.4325 53.4409 29.7078 53.3983 29.7078 53.1899V53.1138C29.7078 53.0088 29.6394 52.9616 29.3944 52.8643L28.2626 52.4337C27.9659 52.3196 27.6297 51.9514 27.6297 51.5604V51.3368C27.6297 50.8028 28.0116 50.1973 29.2347 50.1973C30.4517 50.1973 30.8351 50.8028 30.8351 51.3368V51.4448C30.8351 51.6091 30.7803 51.673 30.613 51.673H29.8797C29.723 51.673 29.6683 51.6091 29.6683 51.4448V51.3353H29.6698Z" fill="#2E2E2D"/>
<path d="M34.9139 51.3353C34.9139 51.1208 34.7009 51.0751 34.4773 51.0751C34.2461 51.0751 34.0437 51.1192 34.0437 51.3353V51.3718C34.0437 51.4935 34.1274 51.5589 34.2126 51.5893L35.3353 51.9895C35.8693 52.1827 36.137 52.4702 36.137 52.8567V53.2431C36.137 53.768 35.67 54.3294 34.4453 54.3294C33.2222 54.3294 32.7734 53.768 32.7734 53.2431V53.0712C32.7734 52.9175 32.8267 52.8567 32.9879 52.8567H33.7166C33.8809 52.8567 33.9372 52.916 33.9372 53.0712V53.1899C33.9372 53.3983 34.205 53.4409 34.4438 53.4409C34.6842 53.4409 34.9595 53.3983 34.9595 53.1899V53.1138C34.9595 53.0088 34.8956 52.9616 34.6462 52.8643L33.5189 52.4337C33.2207 52.3196 32.8799 51.9514 32.8799 51.5604V51.3368C32.8799 50.8028 33.2679 50.1973 34.4819 50.1973C35.7019 50.1973 36.0868 50.8028 36.0868 51.3368V51.4448C36.0868 51.6091 36.029 51.673 35.8602 51.673H35.1314C34.9717 51.673 34.9139 51.6091 34.9139 51.4448V51.3353Z" fill="#2E2E2D"/>
<path d="M38.0157 54.025C38.0157 54.1969 37.961 54.2654 37.7921 54.2654H36.9676C36.8002 54.2654 36.7363 54.1969 36.7363 54.025V50.5C36.7363 50.328 36.8017 50.2581 36.9676 50.2581H37.7921C37.961 50.2581 38.0157 50.328 38.0157 50.5V54.025ZM38.0157 49.5658C38.0157 49.7377 37.961 49.8016 37.7921 49.8016H36.9676C36.8002 49.8016 36.7363 49.7377 36.7363 49.5658V48.9025C36.7363 48.7367 36.8017 48.6621 36.9676 48.6621H37.7921C37.961 48.6621 38.0157 48.7367 38.0157 48.9025V49.5658Z" fill="#2E2E2D"/>
<path d="M39.8169 50.257C39.9873 50.257 40.0314 50.3209 40.0512 50.4913L40.0573 50.6267C40.2779 50.4426 40.6247 50.1992 41.2606 50.1992C41.7475 50.1992 42.105 50.4031 42.289 50.7226C42.4868 50.5446 42.8747 50.1992 43.605 50.1992C44.3337 50.1992 44.7809 50.6602 44.7809 51.3114V54.024C44.7809 54.1959 44.717 54.2689 44.5466 54.2689H43.7373C43.57 54.2689 43.4985 54.1974 43.4985 54.024V51.64C43.4985 51.3859 43.4498 51.2901 43.1927 51.2901C42.8793 51.2901 42.5811 51.4878 42.4381 51.6141V54.024C42.4381 54.1959 42.3758 54.2689 42.2069 54.2689H41.3976C41.2272 54.2689 41.1572 54.1974 41.1572 54.024V51.64C41.1572 51.3859 41.1085 51.2901 40.8499 51.2901C40.5411 51.2901 40.2429 51.4878 40.0999 51.6141V54.024C40.0999 54.1959 40.0436 54.2689 39.8747 54.2689H39.0502C38.8829 54.2689 38.8159 54.1974 38.8159 54.024V50.4929C38.8159 50.3225 38.8829 50.2586 39.0502 50.2586H39.8169V50.257Z" fill="#2E2E2D"/>
<path d="M47.9255 51.6293C47.9255 51.4696 47.9179 51.2901 47.6152 51.2901C47.2988 51.2901 46.9808 51.4985 46.818 51.6172V52.9012C46.9808 53.0229 47.2973 53.2314 47.6152 53.2314C47.9179 53.2314 47.9255 53.0564 47.9255 52.8936V51.6293ZM46.5412 50.257C46.7085 50.257 46.7526 50.3316 46.7678 50.4989L46.7891 50.6343C47.0173 50.4624 47.3901 50.1992 48.0229 50.1992C48.8338 50.1992 49.211 50.6632 49.211 51.4285V53.0944C49.211 53.8582 48.8322 54.3283 48.0229 54.3283C47.4235 54.3283 47.0462 54.0864 46.8196 53.9206V55.6215C46.8196 55.7888 46.7648 55.8603 46.5959 55.8603H45.7714C45.601 55.8603 45.5371 55.7888 45.5371 55.6215V50.4989C45.5371 50.3316 45.601 50.257 45.7714 50.257H46.5412Z" fill="#2E2E2D"/>
<path d="M51.2067 54.0255C51.2067 54.1974 51.1519 54.2674 50.9891 54.2674H50.1615C49.9927 54.2674 49.9272 54.1974 49.9272 54.0255V48.9029C49.9272 48.7371 49.9927 48.6641 50.1615 48.6641H50.9891C51.1519 48.6641 51.2067 48.7371 51.2067 48.9029V54.0255Z" fill="#2E2E2D"/>
<path d="M53.1801 51.7341H54.1491V51.4998C54.1491 51.2579 53.997 51.1392 53.6639 51.1392C53.3246 51.1392 53.1801 51.2579 53.1801 51.4998V51.7341ZM55.3464 52.332C55.3464 52.4841 55.2856 52.5511 55.1319 52.5511H53.1801V53.0319C53.1801 53.2707 53.3246 53.3848 53.6639 53.3848C53.997 53.3848 54.1491 53.2707 54.1491 53.0319V53.0242C54.1491 52.8569 54.2161 52.7899 54.3834 52.7899H55.0741C55.2445 52.7899 55.3008 52.8569 55.3008 53.0242V53.0821C55.3008 53.8443 54.8748 54.3281 53.6654 54.3281C52.4559 54.3281 51.9326 53.8428 51.9326 53.0821V51.442C51.9326 50.6843 52.4559 50.1914 53.6654 50.1914C54.8748 50.1914 55.3479 50.6843 55.3479 51.442V52.332H55.3464Z" fill="#2E2E2D"/>
</g>
<defs>
<clipPath id="clip0_391_241">
<rect width="72" height="72" fill="white"/>
</clipPath>
</defs>
</svg>
